Coordinates
version=1
nRows=16
nColumns=40
inDegrees=yes

Units are S.I. units (second, meters, Newtons, ...)
Angles are in degrees.

endheader
time	pelvis_tilt	pelvis_list	pelvis_rotation	pelvis_tx	pelvis_ty	pelvis_tz	hip_flexion_r	hip_adduction_r	hip_rotation_r	knee_angle_r	knee_angle_r_beta	ankle_angle_r	subtalar_angle_r	mtp_angle_r	hip_flexion_l	hip_adduction_l	hip_rotation_l	knee_angle_l	knee_angle_l_beta	ankle_angle_l	subtalar_angle_l	mtp_angle_l	lumbar_extension	lumbar_bending	lumbar_rotation	arm_flex_r	arm_add_r	arm_rot_r	elbow_flex_r	pro_sup_r	wrist_flex_r	wrist_dev_r	arm_flex_l	arm_add_l	arm_rot_l	elbow_flex_l	pro_sup_l	wrist_flex_l	wrist_dev_l
      0.60000000	     -0.54575360	      1.25654415	      3.75252177	      0.06354715	      0.87448059	      1.49559086	     -0.81957496	     -7.81139069	     -8.30278216	    -53.73282312	     -0.93781468	    -18.57361171	    -12.77723657	     14.61486676	     28.18400047	     -0.54614564	      5.36134608	    -37.42858119	     -0.65325198	      5.71403306	     16.25317804	      9.35473385	     -5.35102731	     -5.03811662	     -1.00592029	     -7.96412244	    -10.09530226	    -11.44754413	     60.36254843	     89.95437384	      0.00000000	      0.00000000	    -10.11558208	      8.65272943	     23.73026290	     18.02612197	     89.95437384	      0.00000000	      0.00000000
      0.61000000	     -1.03720394	      1.75275205	      3.75391102	      0.07559664	      0.87470644	      1.49355353	      1.81006866	     -8.48526193	     -7.77606028	    -57.03018898	     -0.99536457	    -19.80527342	    -15.72981566	     15.45652032	     27.77099743	     -1.20897466	      5.55746826	    -37.48946025	     -0.65431452	      6.82035105	     16.45092884	      9.23653649	     -4.87528917	     -5.69066113	     -1.10733441	     -8.15558318	     -9.90254183	    -11.28904799	     58.75374564	     89.95437384	      0.00000000	      0.00000000	     -9.64461519	      8.86518867	     22.89056103	     18.95530369	     89.95437384	      0.00000000	      0.00000000
      0.62000000	     -0.90988419	      1.83934070	      3.99044844	      0.08764277	      0.87607357	      1.49156423	      3.50606873	     -8.60263256	     -7.57568480	    -59.65178407	     -1.04112004	    -19.34603627	    -16.85170425	     15.59811660	     26.67324973	     -1.40009903	      5.61633601	    -37.45176586	     -0.65365662	      7.72849105	     16.11076442	      8.99373309	     -5.14476275	     -5.82705023	     -1.46771094	     -8.16157250	     -9.72127506	    -11.17315035	     57.04027743	     89.95437384	      0.00000000	      0.00000000	     -8.90366544	      9.01709208	     22.31302721	     19.70558341	     89.95437384	      0.00000000	      0.00000000
      0.63000000	     -0.52670848	      1.60660341	      4.35276872	      0.09972963	      0.87780756	      1.48948677	      4.85577034	     -8.45739887	     -7.83478212	    -61.79273694	     -1.07848671	    -19.03906480	    -17.12416048	     15.42163871	     25.34757078	     -1.20301239	      5.67777570	    -37.41547546	     -0.65302324	      8.09342800	     15.75702846	      8.79664081	     -5.71937302	     -5.52538220	     -1.89128506	     -8.28419980	     -9.60242875	    -11.18689172	     55.58591277	     89.95437384	      0.00000000	      0.00000000	     -8.02392469	      9.07645014	     22.02974073	     20.42933564	     89.95437384	      0.00000000	      0.00000000
      0.64000000	     -0.98254248	      1.93206419	      4.29619574	      0.11137685	      0.87834743	      1.48806611	      7.51486364	     -8.80174771	     -7.39780648	    -64.31560685	     -1.12251910	    -16.66724605	    -17.81608924	     21.51540297	     24.75248138	     -1.65322679	      5.79515564	    -37.15390795	     -0.64845802	      9.00437767	     15.74917303	      8.39047037	     -5.30419264	     -6.01639719	     -2.03505824	     -8.13191085	     -9.35600102	    -11.00201339	     53.32696441	     89.95437384	      0.00000000	      0.00000000	     -7.70543253	      9.42789121	     20.62152314	     21.86036890	     89.95437384	      0.00000000	      0.00000000
      0.65000000	     -0.78234076	      1.76279023	      4.49624622	      0.12324099	      0.88002319	      1.48638300	      9.13353053	     -8.54798014	     -7.41138323	    -65.89464006	     -1.15007843	    -15.32628306	    -18.16887764	     21.12973366	     23.48349253	     -1.53130136	      5.81178745	    -36.85002956	     -0.64315435	      9.67143148	     15.40701744	      8.13378660	     -5.64529867	     -5.82662099	     -2.36991868	     -7.98446192	     -9.19411525	    -10.98832749	     51.23597432	     89.95437384	      0.00000000	      0.00000000	     -6.92522366	      9.50820441	     20.52443146	     22.85153726	     89.95437384	      0.00000000	      0.00000000
      0.66000000	     -0.60142234	      1.50059803	      4.73590217	      0.13487728	      0.88156487	      1.48461044	     10.81438747	     -8.27409056	     -7.63447142	    -67.19675728	     -1.17280466	    -14.31115190	    -18.18905680	     20.69622157	     22.28783255	     -1.31125326	      5.79236972	    -36.56636095	     -0.63820339	     10.09277748	     15.07664419	      7.91387650	     -5.99875988	     -5.48306872	     -2.67441574	     -8.04118792	     -9.14540890	    -10.95253629	     49.49377225	     89.95437384	      0.00000000	      0.00000000	     -6.06144161	      9.56553011	     20.41032964	     23.90051659	     89.95437384	      0.00000000	      0.00000000
      0.67000000	     -0.82750645	      1.47675602	      4.90410030	      0.14662036	      0.88249952	      1.48319212	     12.90259983	     -8.10729612	     -7.49594444	    -68.31115173	     -1.19225451	    -11.85586453	    -18.00989360	     20.44841396	     21.43984659	     -1.39070993	      5.68518904	    -36.19726417	     -0.63176144	     10.84374675	     14.86055281	      7.47821562	     -5.84741508	     -5.54754914	     -3.17825907	     -7.77756720	     -9.01131372	    -10.55225144	     47.03125877	     89.95437384	      0.00000000	      0.00000000	     -5.84645291	      9.70599762	     20.40375198	     25.80817382	     89.95437384	      0.00000000	      0.00000000
      0.68000000	     -0.82798916	      1.21044713	      5.16301997	      0.15834833	      0.88384522	      1.48168984	     14.63477699	     -7.65469852	     -7.54277243	    -68.84528027	     -1.20157682	    -10.42430993	    -17.90890226	     20.07405209	     20.35571325	     -1.22546636	      5.42012400	    -35.74959891	     -0.62394821	     11.35043588	     14.59522500	      7.20436837	     -5.94353474	     -5.24818439	     -3.53344355	     -7.69048014	     -8.85505811	    -10.72631452	     44.85899889	     89.95437384	      0.00000000	      0.00000000	     -5.16035713	      9.80992444	     20.30967421	     27.11096564	     89.95437384	      0.00000000	      0.00000000
      0.69000000	     -0.85023082	      0.99156306	      5.45414004	      0.17006739	      0.88503795	      1.48011003	     16.34936504	     -7.34591678	     -7.71755134	    -69.13366444	     -1.20661007	     -8.75411635	    -17.58864246	     19.62594724	     19.31990637	     -1.08736267	      5.24861187	    -35.35983868	     -0.61714561	     11.84468637	     14.34899093	      6.86632594	     -6.02956892	     -5.00844802	     -3.99181574	     -7.59537781	     -8.74199192	    -10.80998034	     42.70709362	     89.95437384	      0.00000000	      0.00000000	     -4.72534052	      9.90393496	     20.29669887	     28.90753765	     89.95437384	      0.00000000	      0.00000000
      0.70000000	     -0.89682845	      0.78582425	      5.75045337	      0.18174701	      0.88618902	      1.47854444	     17.99362366	     -7.06327011	     -7.93834854	    -69.02835952	     -1.20477215	     -7.14901541	    -17.26934088	     19.15791362	     18.26839911	     -0.95381759	      5.08032918	    -34.87338474	     -0.60865538	     12.34796846	     14.09490390	      6.55838479	     -6.07277802	     -4.77337266	     -4.42988608	     -7.54992390	     -8.64300813	    -10.94195559	     40.63183329	     89.95437384	      0.00000000	      0.00000000	     -4.25083920	     10.01618549	     20.21881273	     30.64906372	     89.95437384	      0.00000000	      0.00000000
      0.71000000	     -0.94321942	      0.55526038	      6.06807867	      0.19336681	      0.88724929	      1.47700179	     19.59153525	     -6.84741941	     -8.26767724	    -68.64689154	     -1.19811428	     -5.63447561	    -16.88014236	     18.66062655	     17.21471764	     -0.76459152	      4.93674811	    -34.35123690	     -0.59954219	     12.78479960	     13.80296618	      6.26653227	     -6.12365409	     -4.49943974	     -4.89332747	     -7.52619076	     -8.55389197	    -11.17662875	     38.66751163	     89.95437384	      0.00000000	      0.00000000	     -3.78534315	     10.13899163	     20.16587141	     32.49579866	     89.95437384	      0.00000000	      0.00000000
      0.72000000	     -0.87066273	      0.42940456	      6.40834011	      0.20501919	      0.88838641	      1.47529393	     20.95365891	     -6.82759953	     -8.67170825	    -67.95784676	     -1.18608818	     -4.12865313	    -16.33570085	     18.15936764	     16.01383978	     -0.67541707	      4.76351035	    -33.84703072	     -0.59074213	     13.17484994	     13.48251723	      5.90321933	     -6.33073462	     -4.31667827	     -5.41781247	     -7.42411719	     -8.47702669	    -11.39415420	     36.61510972	     89.95437384	      0.00000000	      0.00000000	     -3.46045124	     10.28692514	     20.03922839	     34.63563192	     89.95437384	      0.00000000	      0.00000000
      0.73000000	     -0.65359214	      0.33948620	      6.76628383	      0.21687058	      0.88971616	      1.47353820	     21.97921389	     -6.89521800	     -9.16962741	    -66.85785306	     -1.16688967	     -2.84604068	    -15.72202607	     17.77168438	     14.57121028	     -0.55865382	      4.82250091	    -33.13852783	     -0.57837642	     13.35400600	     13.10253253	      5.26849260	     -6.68916443	     -4.13051736	     -5.94526051	     -7.45214204	     -8.43336280	    -11.66722130	     34.85617569	     89.95437384	      0.00000000	      0.00000000	     -3.10986629	     10.42950437	     19.94416802	     36.76831378	     89.95437384	      0.00000000	      0.00000000
      0.74000000	     -0.74670419	      0.20262172	      6.99872648	      0.22846705	      0.89037973	      1.47223254	     23.37423023	     -6.81775302	     -9.43561196	    -65.54727025	     -1.14401568	     -1.96532180	    -15.63287873	     17.43046388	     13.53262215	     -0.38625237	      4.83926861	    -32.57221975	     -0.56849248	     13.80651482	     12.66814731	      4.90858351	     -6.68188988	     -3.95686298	     -6.30720167	     -7.51338244	     -8.38169711	    -12.02621552	     33.09798325	     89.95437384	      0.00000000	      0.00000000	     -2.77021952	     10.64438355	     19.70219334	     38.90536529	     89.95437384	      0.00000000	      0.00000000
      0.75000000	     -0.49587766	      0.12536072	      7.31218834	      0.24043626	      0.89148465	      1.47082010	     24.16758458	     -6.87777161	     -9.90117399	    -63.81594036	     -1.11379827	     -1.16858495	    -15.50141561	     17.22133666	     12.00822033	     -0.17063177	      5.02599321	    -31.80614129	     -0.55512189	     13.90849965	     11.97690273	      4.19236260	     -7.06503114	     -3.79447238	     -6.79529585	     -7.56562076	     -8.31410247	    -12.51930576	     31.49152312	     89.95437384	      0.00000000	      0.00000000	     -2.48338447	     10.84424040	     19.67453914	     41.18866189	     89.95437384	      0.00000000	      0.00000000
